<!DOCTYPE svg PUBLIC "-//W3C//DTD SVG 20010904//EN" "http://www.w3.org/TR/2001/REC-SVG-20010904/DTD/svg10.dtd">
<svg version="1.0" xmlns="http://www.w3.org/2000/svg" width="542px" height="642px" viewBox="0 0 5420 6420" preserveAspectRatio="xMidYMid meet">
<g id="layer101" fill="#0e1a14" stroke="none">
 <path d="M0 3210 l0 -3210 2710 0 2710 0 0 3210 0 3210 -2710 0 -2710 0 0 -3210z"/>
 </g>
<g id="layer102" fill="#e98726" stroke="none">
 <path d="M0 3210 l0 -3210 2710 0 2710 0 0 3210 0 3210 -2710 0 -2710 0 0 -3210z m750 2704 c22 -9 50 -30 63 -48 21 -29 22 -41 22 -196 0 -140 -4 -187 -29 -315 -16 -82 -42 -199 -58 -260 -17 -61 -40 -194 -53 -300 -13 -104 -30 -230 -39 -280 -8 -49 -22 -148 -31 -220 -9 -71 -33 -209 -52 -305 -19 -96 -35 -207 -36 -246 -2 -60 2 -76 24 -110 41 -62 60 -122 72 -224 26 -206 9 -339 -55 -462 -52 -98 -123 -120 -237 -74 -89 36 -146 79 -170 129 -32 65 -30 212 5 332 14 50 28 99 31 110 3 11 21 53 40 93 27 55 45 79 78 102 24 16 53 47 66 67 13 21 26 40 29 43 4 3 10 16 13 30 3 14 10 43 15 65 6 22 13 152 17 289 3 136 11 285 16 330 5 44 12 131 16 191 3 61 10 112 14 115 5 3 11 62 14 130 3 69 10 163 15 210 28 249 42 375 55 465 8 55 16 149 17 209 2 70 7 115 16 127 16 24 67 25 122 3z m1823 -261 c22 -13 -16 -126 -56 -171 -21 -22 -21 -22 -39 5 -24 35 -78 140 -78 151 0 22 141 34 173 15z m-244 -50 c12 -31 42 -85 67 -120 45 -63 45 -63 20 -94 -14 -16 -31 -48 -37 -70 -13 -40 -9 -65 45 -289 7 -30 10 -59 6 -63 -4 -5 -24 -1 -43 8 -20 9 -46 15 -59 13 -20 -3 -17 -7 27 -36 58 -37 106 -41 135 -12 28 28 26 52 -24 230 -22 75 -21 142 2 170 19 23 19 23 59 -40 41 -62 41 -62 36 -154 -6 -103 14 -220 48 -276 18 -28 24 -32 52 -26 36 7 44 17 53 66 9 42 -11 189 -31 237 -16 38 -6 79 20 90 45 17 135 -138 162 -277 20 -106 26 -113 78 -107 31 3 53 -2 86 -19 117 -63 229 12 229 155 0 73 -17 120 -55 149 -34 27 -75 28 -106 3 -24 -20 -24 -20 4 -69 31 -57 37 -135 13 -168 -14 -18 -17 -18 -42 -4 -16 8 -38 35 -50 60 -22 44 -23 47 -9 175 52 475 52 482 12 511 -21 15 -20 15 23 10 25 -3 106 -10 180 -15 241 -15 358 -89 457 -286 27 -53 73 -193 73 -222 0 -6 -20 -23 -44 -37 -39 -23 -106 -104 -106 -129 0 -8 -23 -6 -100 9 -24 4 -25 7 -22 74 3 63 1 72 -22 95 -37 37 -80 34 -122 -10 -42 -45 -64 -89 -71 -145 -5 -41 -2 -47 24 -66 29 -22 29 -22 6 -210 -12 -104 -23 -207 -23 -229 0 -40 0 -40 -33 18 -41 74 -123 157 -154 157 -21 0 -23 -2 -12 -22 7 -13 29 -42 50 -65 64 -70 129 -224 129 -306 0 -69 9 -87 40 -87 15 0 32 6 38 13 18 21 62 224 92 427 17 107 33 211 36 231 6 40 7 40 82 17 30 -9 32 -12 32 -59 0 -96 47 -158 110 -144 59 13 84 90 56 172 -16 48 -16 48 11 87 16 22 33 41 40 43 14 5 55 -165 82 -338 22 -139 58 -483 72 -689 5 -74 18 -206 29 -293 11 -87 19 -204 19 -260 -1 -102 -1 -102 -16 -37 -7 36 -22 85 -31 110 -16 41 -21 45 -55 48 -45 4 -64 -9 -87 -60 -16 -37 -16 -37 -27 6 -7 23 -23 54 -37 69 -43 46 -121 34 -138 -23 -9 -29 -28 28 -40 118 -12 96 -23 111 -77 112 -47 0 -71 -24 -71 -71 0 -53 -20 -192 -29 -202 -11 -11 -48 69 -65 138 -8 33 -17 94 -21 137 -7 84 -19 103 -72 114 -25 5 -37 1 -56 -18 -22 -22 -25 -36 -31 -139 -4 -63 -9 -133 -13 -157 -5 -43 -5 -43 -22 -15 -32 54 -52 145 -65 288 -13 160 -24 185 -79 185 -22 0 -40 11 -71 45 -39 42 -46 45 -92 45 -65 0 -112 -26 -146 -81 -28 -44 -56 -136 -60 -196 -2 -34 -18 -47 -18 -15 0 28 -60 212 -86 263 -63 126 -180 133 -213 13 -37 -133 29 -404 146 -601 90 -152 165 -203 232 -157 37 26 49 69 66 240 18 172 36 281 55 329 13 30 13 30 20 3 4 -15 13 -75 20 -135 15 -142 37 -285 49 -315 5 -14 17 -32 26 -41 19 -20 85 -23 103 -5 8 8 21 2 52 -25 36 -33 46 -37 96 -37 48 0 59 4 86 30 30 30 30 30 69 -4 21 -20 50 -38 64 -42 45 -11 98 3 126 35 27 29 27 29 64 -9 55 -56 168 -130 199 -130 38 0 70 36 97 110 25 68 25 68 49 -20 20 -75 42 -120 77 -158 18 -20 33 -43 33 -52 0 -9 7 -88 16 -176 22 -217 8 -402 -37 -486 -5 -10 -51 -46 -101 -79 -84 -57 -101 -64 -227 -95 -166 -42 -307 -58 -426 -51 -192 13 -289 -51 -341 -222 -20 -66 -28 -234 -14 -311 6 -36 14 -80 17 -97 3 -18 9 -33 14 -33 5 0 9 -10 9 -22 0 -13 15 -48 32 -78 70 -120 146 -409 147 -560 1 -60 -24 -274 -37 -330 -14 -56 -50 -118 -93 -159 -32 -32 -53 -42 -117 -57 -42 -11 -113 -19 -157 -19 -69 0 -91 5 -158 34 -218 94 -264 176 -308 551 -12 109 -6 346 12 445 39 220 49 308 47 415 -3 102 -6 121 -30 170 -15 31 -53 83 -85 117 -58 62 -58 62 -226 108 -92 25 -215 61 -275 79 -59 19 -134 39 -167 46 -33 7 -82 24 -110 37 -27 14 -79 37 -115 50 -138 52 -166 94 -209 316 -17 87 -31 164 -31 171 0 8 10 11 28 8 74 -10 154 38 214 129 17 27 34 49 37 49 3 0 14 -26 24 -58 60 -193 186 -368 311 -431 58 -30 72 -33 128 -29 48 3 73 11 105 32 175 117 293 510 293 979 0 246 -60 534 -150 722 -38 79 -158 237 -185 243 -29 7 0 -184 54 -348 21 -63 48 -158 60 -210 12 -52 27 -113 32 -134 18 -65 23 -409 10 -537 -33 -304 -95 -501 -186 -589 -33 -32 -36 -33 -74 -22 -84 26 -193 178 -257 362 -34 98 -39 160 -20 268 9 50 16 102 16 114 0 59 -90 81 -129 32 -12 -15 -21 -34 -21 -43 0 -22 -64 -154 -124 -256 -56 -95 -102 -145 -132 -145 -45 0 -48 17 -40 229 3 109 11 236 16 282 6 46 10 162 10 258 0 116 6 220 19 315 24 167 37 285 52 461 6 72 20 156 30 187 23 69 23 68 4 68 -12 0 -15 8 -11 33 3 17 8 59 11 92 15 137 72 412 101 480 11 26 12 11 12 -120 1 -128 4 -162 24 -231 31 -103 96 -218 172 -301 72 -78 117 -103 189 -103 45 0 57 4 79 28 53 56 60 137 23 292 -50 212 -58 262 -45 309 6 23 40 85 76 138 102 150 116 191 73 213 -50 27 -108 -13 -183 -129 -88 -135 -101 -167 -100 -256 1 -72 7 -94 53 -209 78 -194 80 -316 7 -324 -87 -10 -253 215 -291 395 -18 84 -19 269 -3 383 13 85 13 85 19 30 4 -30 8 -95 8 -145 1 -95 9 -122 34 -112 24 9 32 124 18 256 -13 130 -15 127 64 135 185 19 282 23 531 24 281 2 281 2 303 -55z m623 47 c-13 -6 -31 -29 -43 -57 -22 -50 -59 -233 -59 -290 0 -36 -10 -42 -31 -17 -36 43 -127 58 -183 29 -16 -9 -30 -14 -31 -13 -69 98 -68 96 -31 139 47 56 69 104 74 167 4 52 4 52 166 51 108 0 153 -3 138 -9z m1559 -838 c88 -56 130 -194 159 -523 5 -68 17 -202 25 -297 8 -95 15 -257 15 -360 0 -188 13 -322 49 -526 26 -140 51 -196 121 -259 55 -50 122 -141 148 -200 6 -15 24 -73 39 -130 25 -92 28 -117 27 -262 -1 -168 -16 -266 -36 -231 -27 49 -59 185 -74 316 -20 180 -26 195 -79 195 -40 0 -40 0 -44 -60 -3 -61 10 -202 35 -377 8 -54 14 -108 14 -120 0 -21 -2 -21 -19 7 -32 50 -69 174 -84 285 -8 58 -23 124 -32 148 -17 40 -19 42 -61 42 -44 0 -44 0 -44 -67 0 -38 7 -93 15 -123 8 -30 19 -91 25 -135 6 -44 12 -96 15 -115 5 -35 5 -35 -11 -5 -10 16 -36 82 -59 146 -24 64 -65 155 -93 202 -70 118 -78 150 -58 219 8 30 33 77 54 104 76 96 76 96 53 263 -12 80 -30 223 -42 316 -13 106 -30 196 -45 239 -13 38 -40 148 -59 245 -20 97 -49 217 -65 266 -55 168 -81 315 -87 495 -5 137 -3 175 11 222 31 107 98 136 187 80z m-2077 -844 c52 -110 59 -133 86 -257 20 -96 24 -165 11 -211 -7 -25 -7 -25 -24 0 -31 48 -86 178 -107 253 -35 128 -46 307 -19 307 5 0 28 -42 53 -92z m1398 -2204 c18 -9 68 -40 111 -67 64 -41 88 -65 134 -130 48 -67 57 -89 61 -133 4 -47 2 -54 -22 -69 -19 -13 -40 -16 -75 -13 -54 5 -186 64 -233 103 -24 20 -68 35 -68 23 0 -11 -41 -244 -50 -285 -6 -28 -20 -59 -31 -69 -18 -17 -20 -15 -51 52 -27 59 -32 84 -36 167 -4 93 19 277 38 302 4 6 13 26 19 45 6 19 27 51 46 71 33 35 36 36 79 28 25 -5 60 -16 78 -25z m-2150 -71 c24 -28 48 -81 64 -139 82 -314 86 -464 14 -529 -18 -16 -21 -16 -54 4 -63 40 -122 115 -149 193 -15 40 -29 92 -32 116 -8 53 -24 54 -60 1 -34 -48 -92 -84 -169 -104 -114 -30 -142 -17 -134 64 5 52 51 158 90 205 93 115 140 147 273 187 79 23 137 24 157 2z"/>
 <path d="M2095 5440 c-45 -18 -95 -100 -95 -155 0 -23 -4 -25 -41 -25 -46 0 -74 -12 -83 -36 -5 -14 0 -15 41 -9 64 8 78 -5 93 -85 23 -124 72 -200 129 -200 89 0 92 123 4 220 -43 48 -44 50 -32 88 19 65 48 93 101 99 41 5 50 2 73 -21 36 -36 47 -33 40 12 -7 47 -32 82 -76 104 -36 19 -119 23 -154 8z m25 -352 c24 -40 28 -107 6 -89 -11 10 -36 90 -36 116 0 13 12 2 30 -27z"/>
 <path d="M2593 1210 c-53 -22 -86 -163 -73 -310 18 -193 55 -240 194 -240 80 0 98 14 116 89 10 44 10 70 -5 163 -30 197 -57 254 -137 288 -51 22 -62 23 -95 10z"/>
 </g>
<g id="layer103" fill="#fcfcfb" stroke="none">
 <path d="M1 5658 c1 -534 4 -749 11 -718 6 25 14 47 19 50 12 8 55 108 64 150 14 62 83 197 115 221 75 60 90 69 142 92 31 14 71 28 89 32 80 15 130 30 138 40 13 18 30 156 33 263 2 122 12 142 66 142 46 0 117 -32 134 -59 7 -12 18 -21 23 -21 6 0 30 46 53 103 47 113 78 150 250 304 76 68 103 85 155 102 95 29 165 35 214 17 23 -8 90 -22 150 -31 163 -25 251 -56 364 -128 80 -50 158 -84 309 -133 119 -39 146 -44 228 -44 98 0 117 6 197 60 59 40 460 243 531 269 34 12 97 28 140 36 67 11 -185 13 -1673 14 l-1753 1 1 -762z"/>
 <path d="M3650 6404 c168 -38 200 -48 285 -96 139 -79 228 -151 299 -243 56 -73 67 -94 85 -166 11 -46 25 -133 32 -194 13 -134 52 -306 89 -397 57 -139 206 -305 405 -451 36 -25 86 -77 120 -123 33 -43 96 -124 140 -179 142 -175 204 -287 241 -433 15 -59 24 -123 24 -171 0 -185 -101 -475 -216 -622 -82 -104 -95 -211 -43 -361 16 -49 41 -142 54 -206 27 -133 28 -135 84 -255 23 -49 53 -128 67 -175 25 -89 64 -295 64 -344 0 -16 4 -28 9 -28 5 0 14 -24 19 -53 6 -34 10 743 11 2231 l1 2282 -917 -1 c-825 -1 -911 -2 -853 -15z"/>
 <path d="M3514 6140 c-56 -11 -171 -70 -274 -140 -109 -74 -134 -86 -194 -94 -56 -7 -86 -29 -86 -61 0 -44 54 -61 140 -45 65 12 125 41 240 118 117 79 175 108 243 122 84 17 171 -5 251 -64 60 -44 165 -149 175 -174 15 -39 71 -301 87 -412 22 -149 73 -280 109 -280 19 0 19 3 -4 48 -39 77 -61 210 -61 365 0 161 -17 271 -51 338 -49 97 -214 233 -326 270 -59 20 -173 24 -249 9z"/>
 <path d="M1500 6057 c-142 -48 -233 -133 -310 -292 -28 -57 -65 -121 -82 -142 -16 -21 -41 -60 -55 -88 -14 -27 -34 -60 -46 -72 -28 -31 -11 -29 79 9 87 36 146 95 190 188 14 30 35 74 46 98 29 61 97 132 168 176 62 39 62 39 154 33 71 -4 107 -12 164 -36 40 -16 90 -33 110 -37 20 -4 51 -13 69 -21 36 -14 150 -18 171 -4 21 13 -12 22 -56 16 -29 -4 -48 1 -87 24 -27 17 -99 55 -160 86 -88 44 -125 57 -185 65 -95 12 -126 11 -170 -3z"/>
 <path d="M2398 5867 c-41 -19 -76 -56 -89 -94 -22 -69 12 -185 87 -291 45 -62 45 -62 20 -93 -14 -16 -31 -48 -37 -70 -13 -40 -4 -96 45 -284 18 -70 10 -84 -35 -61 -36 18 -84 22 -74 6 11 -17 103 -60 130 -60 31 0 65 33 65 63 -1 22 -15 84 -44 187 -22 75 -21 142 2 170 19 23 19 23 59 -40 41 -62 41 -62 36 -154 -6 -103 14 -220 48 -276 18 -28 24 -32 52 -26 36 7 44 17 53 66 9 42 -11 189 -31 237 -16 38 -6 79 20 90 45 17 135 -138 162 -277 20 -106 26 -113 78 -107 31 3 53 -2 86 -19 117 -63 229 12 229 155 0 73 -17 120 -55 149 -34 27 -75 28 -106 3 -24 -20 -24 -20 4 -69 31 -57 37 -135 13 -168 -14 -18 -17 -18 -42 -4 -16 8 -38 35 -50 60 -23 45 -23 45 -4 225 43 400 43 401 28 432 -9 19 -22 29 -42 31 -54 7 -76 -6 -97 -56 -22 -49 -59 -232 -59 -289 0 -36 -10 -42 -31 -17 -36 43 -127 58 -183 29 -16 -9 -30 -14 -31 -13 -69 98 -68 96 -31 139 47 55 69 104 74 166 8 99 -37 206 -104 245 -40 23 -112 31 -146 15z m120 -72 c39 -33 67 -120 57 -183 -8 -52 -27 -96 -58 -130 -21 -22 -21 -22 -40 5 -10 16 -36 64 -58 107 -51 105 -54 162 -8 200 38 33 69 33 107 1z"/>
 <path d="M1333 5648 c-6 -7 -15 -35 -21 -63 -40 -186 -42 -458 -4 -575 44 -133 178 -317 263 -360 24 -13 58 -20 92 -20 45 0 57 4 79 28 53 56 60 137 23 292 -50 212 -58 262 -45 309 6 23 40 85 76 138 102 150 116 191 73 213 -50 27 -108 -13 -183 -129 -88 -135 -101 -167 -100 -256 1 -72 7 -93 54 -210 47 -117 53 -138 54 -211 1 -66 -2 -86 -17 -102 -36 -40 -107 1 -187 106 -65 86 -117 193 -135 279 -18 84 -19 269 -3 383 13 85 13 85 19 30 4 -30 8 -95 8 -145 1 -95 9 -122 34 -112 41 15 28 349 -16 405 -5 6 -20 12 -32 12 -12 0 -27 -6 -32 -12z"/>
 <path d="M2095 5440 c-45 -18 -95 -100 -95 -155 0 -23 -4 -25 -41 -25 -46 0 -74 -12 -83 -36 -5 -14 0 -15 41 -9 64 8 78 -5 93 -85 23 -124 72 -200 129 -200 89 0 92 123 4 220 -44 49 -44 49 -32 90 19 64 58 100 108 100 31 0 48 -6 67 -25 35 -35 46 -32 39 13 -7 47 -32 82 -76 104 -36 19 -119 23 -154 8z m25 -352 c24 -40 28 -107 6 -89 -11 10 -36 90 -36 116 0 13 12 2 30 -27z"/>
 <path d="M404 5241 c-91 -23 -172 -91 -251 -210 -70 -105 -77 -140 -77 -366 0 -231 13 -295 79 -380 20 -27 62 -99 91 -158 63 -126 89 -167 111 -167 8 0 13 3 11 8 -47 92 -126 262 -145 312 -21 55 -26 88 -30 215 -7 203 7 338 45 418 56 120 170 217 255 217 26 0 39 6 47 19 12 23 13 61 2 78 -10 15 -98 24 -138 14z"/>
 <path d="M798 5193 c-10 -2 -18 -11 -18 -19 0 -21 54 -18 81 6 24 19 24 19 -11 19 -19 -1 -43 -3 -52 -6z"/>
 <path d="M3344 5135 c-42 -45 -64 -89 -71 -145 -5 -41 -2 -47 24 -66 29 -22 29 -22 6 -210 -12 -104 -23 -207 -23 -229 0 -40 0 -40 -33 18 -41 74 -123 157 -154 157 -21 0 -23 -2 -12 -22 7 -13 29 -42 50 -65 64 -70 129 -224 129 -306 0 -69 9 -87 40 -87 15 0 32 6 38 13 18 21 62 224 92 427 17 107 33 211 36 231 6 40 7 40 82 17 30 -9 32 -12 32 -59 0 -96 47 -158 110 -144 59 13 85 93 56 170 -17 44 -17 46 4 80 48 78 99 91 203 55 93 -33 101 -28 68 46 -48 106 -195 144 -307 78 -38 -21 -104 -103 -104 -127 0 -8 -23 -6 -100 9 -24 4 -25 7 -22 74 3 63 1 72 -22 95 -37 37 -80 34 -122 -10z"/>
 <path d="M1140 4760 c0 -6 -18 -33 -40 -61 -22 -28 -40 -57 -40 -65 0 -8 -3 -14 -7 -14 -5 0 -13 -10 -19 -23 -5 -12 -24 -49 -41 -82 -58 -110 -126 -288 -179 -469 -61 -206 -67 -245 -68 -446 -1 -198 12 -284 71 -487 32 -112 54 -154 100 -192 40 -33 129 -71 166 -71 75 0 143 45 199 131 17 27 34 49 37 49 3 0 14 -26 24 -58 60 -193 186 -368 311 -431 58 -30 72 -33 128 -29 48 3 73 11 105 32 177 118 293 510 293 987 0 237 -61 529 -150 714 -38 79 -158 237 -185 243 -29 7 0 -184 54 -348 21 -63 48 -158 60 -210 12 -52 27 -113 32 -134 18 -65 23 -409 10 -537 -33 -304 -95 -501 -186 -589 -33 -32 -36 -33 -74 -22 -55 17 -146 117 -194 215 -84 169 -108 281 -87 397 23 132 24 149 5 170 -28 31 -88 27 -114 -6 -12 -15 -21 -34 -21 -43 0 -42 -149 -312 -203 -368 -38 -41 -62 -41 -114 -3 -126 93 -199 539 -143 874 32 189 89 397 131 478 5 10 9 23 9 30 0 6 30 72 66 146 61 125 94 203 94 223 0 5 -7 9 -15 9 -8 0 -15 -5 -15 -10z"/>
 <path d="M1 2253 l-1 -2253 1393 1 c887 1 1370 5 1332 11 -180 27 -430 82 -500 108 -169 66 -210 94 -353 239 -158 163 -232 262 -260 351 -54 171 -75 249 -93 336 -21 106 -57 186 -94 210 -22 14 -30 15 -53 4 -39 -18 -128 -40 -161 -40 -41 0 -54 22 -49 79 5 53 53 163 87 198 21 22 28 53 13 53 -5 0 -14 11 -21 24 -13 24 -106 76 -136 76 -17 0 -82 19 -320 92 -236 73 -273 93 -325 174 -39 62 -45 125 -26 259 8 61 18 158 21 216 4 68 16 137 32 190 13 46 33 122 44 169 10 47 21 95 24 108 6 26 -20 31 -51 7 -69 -52 -292 42 -336 142 -30 69 -22 245 16 368 48 151 90 229 147 269 27 20 49 41 49 46 0 12 -26 55 -118 193 -87 131 -222 449 -222 521 0 14 -4 26 -8 26 -5 0 -13 17 -19 38 -7 26 -11 -623 -12 -2215z"/>
 <path d="M4650 4473 c0 -10 4 -43 9 -74 9 -51 15 -61 68 -110 32 -30 74 -70 93 -90 47 -48 117 -190 129 -261 12 -69 5 -194 -15 -268 -41 -147 -45 -182 -31 -250 9 -47 18 -66 30 -68 13 -3 17 4 17 32 0 20 9 55 20 78 10 24 36 88 57 143 32 88 37 113 41 211 2 62 -1 135 -7 164 -15 70 -73 192 -121 256 -41 54 -261 254 -279 254 -6 0 -11 -8 -11 -17z"/>
 <path d="M2315 4126 c-90 -90 -35 -415 112 -663 90 -152 165 -203 232 -157 37 26 49 69 66 240 18 172 36 282 55 329 13 30 13 30 21 0 4 -16 15 -95 24 -175 31 -277 51 -330 125 -330 20 0 41 5 48 12 8 8 21 2 52 -25 36 -33 46 -37 96 -37 48 0 59 4 86 30 30 30 30 30 69 -4 21 -20 50 -38 64 -42 45 -11 98 3 126 35 27 29 27 29 64 -9 55 -56 168 -130 199 -130 38 0 70 36 97 110 25 68 26 68 49 -20 6 -25 23 -70 38 -100 23 -45 37 -59 75 -79 64 -32 109 -23 158 31 92 98 100 342 15 410 -19 16 -76 25 -76 13 0 -2 7 -53 16 -112 17 -115 14 -196 -11 -243 -44 -85 -106 -14 -138 158 -9 44 -23 94 -32 111 -13 27 -21 31 -55 31 -42 0 -74 -29 -87 -79 -6 -23 -7 -21 -19 20 -20 66 -54 99 -102 99 -38 0 -64 -17 -74 -50 -9 -29 -28 28 -40 118 -13 97 -23 111 -79 112 -45 0 -69 -25 -69 -73 0 -51 -20 -191 -29 -200 -11 -11 -48 69 -65 138 -8 33 -17 94 -21 137 -7 84 -19 103 -72 114 -25 5 -37 1 -56 -18 -22 -22 -25 -36 -31 -139 -4 -63 -9 -133 -13 -157 -5 -43 -5 -43 -22 -15 -32 54 -52 145 -65 288 -13 160 -24 185 -79 185 -22 0 -40 11 -71 45 -39 42 -46 45 -92 45 -65 0 -112 -26 -146 -81 -28 -44 -56 -136 -60 -196 -2 -33 -18 -47 -18 -17 0 28 -61 216 -86 265 -47 93 -127 127 -179 75z m119 -158 c52 -110 59 -133 86 -257 20 -96 24 -165 11 -211 -7 -25 -7 -25 -24 0 -31 48 -86 178 -107 253 -35 128 -46 307 -19 307 5 0 28 -42 53 -92z"/>
 <path d="M743 2858 c22 -120 27 -162 33 -262 6 -106 5 -118 -32 -266 -46 -188 -50 -285 -15 -366 46 -105 131 -156 317 -187 112 -19 130 -20 191 -8 38 8 92 14 122 15 31 1 56 6 58 12 2 7 -17 26 -42 43 -43 29 -49 30 -143 29 -166 -3 -325 55 -364 133 -25 47 -23 167 3 305 26 139 29 216 13 296 -26 127 -82 271 -110 282 -31 12 -37 6 -31 -26z"/>
 <path d="M4863 2524 c-3 -9 -3 -66 0 -127 6 -115 24 -189 87 -357 110 -293 105 -275 102 -395 -7 -269 -98 -403 -309 -455 -43 -10 -87 -21 -98 -24 -11 -3 18 -3 65 0 99 6 120 13 219 72 58 36 85 60 131 123 81 110 95 154 95 314 0 122 -2 136 -34 225 -18 52 -41 103 -51 112 -30 28 -68 172 -89 342 -11 87 -26 165 -32 172 -16 20 -78 18 -86 -2z"/>
 <path d="M4280 1845 c-9 -10 -11 -33 -6 -73 10 -98 -43 -236 -106 -271 -25 -14 -28 -21 -26 -56 4 -52 24 -56 87 -16 37 24 57 47 88 106 23 41 46 98 53 126 14 58 8 162 -10 184 -16 19 -64 19 -80 0z"/>
 <path d="M5406 1571 c-3 -22 -9 -41 -13 -43 -5 -1 -16 -28 -26 -58 -27 -80 -99 -191 -175 -269 -76 -77 -135 -121 -242 -179 -75 -41 -75 -41 -274 -52 -256 -15 -349 -42 -481 -140 -73 -55 -99 -86 -146 -175 -23 -44 -50 -96 -60 -115 -10 -19 -35 -71 -54 -114 -30 -67 -49 -93 -123 -165 -132 -130 -219 -172 -472 -226 -155 -33 -155 -33 963 -34 l1117 -1 0 805 c0 443 -2 805 -4 805 -2 0 -6 -18 -10 -39z"/>
 <path d="M1754 1533 c2 -10 12 -56 22 -103 10 -49 27 -98 40 -115 85 -114 119 -209 148 -415 38 -264 40 -270 127 -393 46 -65 141 -161 198 -199 41 -28 171 -80 189 -75 10 2 -20 22 -73 49 -96 49 -195 133 -234 200 -44 75 -71 184 -82 337 -15 225 -30 308 -76 421 -37 90 -104 192 -168 256 -54 54 -102 73 -91 37z"/>
 <path d="M3877 1334 c-54 -34 -71 -54 -45 -54 6 0 39 16 74 35 34 19 71 35 81 36 16 0 16 1 -2 9 -34 15 -49 11 -108 -26z"/>
 <path d="M4060 1156 c-84 -24 -195 -82 -281 -148 -152 -118 -196 -168 -289 -333 -47 -82 -104 -175 -128 -207 -87 -116 -194 -191 -292 -204 -28 -4 -50 -10 -50 -14 0 -20 36 -33 88 -33 76 1 128 16 184 53 102 68 155 132 277 340 41 69 90 145 109 169 41 50 243 204 299 227 21 9 56 24 78 34 22 10 51 21 65 25 41 12 74 41 87 74 11 31 11 31 -45 30 -32 0 -77 -6 -102 -13z"/>
 </g>

</svg>